<mxfile host="65bd71144e">
    <diagram id="IfmUNFcROivKfVWc3Tg9" name="calc-parameters">
        <mxGraphModel dx="659" dy="684" grid="1" gridSize="10" guides="1" tooltips="1" connect="1" arrows="1" fold="1" page="1" pageScale="1" pageWidth="850" pageHeight="1100" math="0" shadow="0">
            <root>
                <mxCell id="0"/>
                <mxCell id="1" parent="0"/>
                <mxCell id="2" value="2w + 1b" style="ellipse;whiteSpace=wrap;html=1;aspect=fixed;" parent="1" vertex="1">
                    <mxGeometry x="300" y="220" width="80" height="80" as="geometry"/>
                </mxCell>
                <mxCell id="3" value="2w + 1b" style="ellipse;whiteSpace=wrap;html=1;aspect=fixed;" parent="1" vertex="1">
                    <mxGeometry x="300" y="340" width="80" height="80" as="geometry"/>
                </mxCell>
                <mxCell id="4" value="2w + 1b" style="ellipse;whiteSpace=wrap;html=1;aspect=fixed;" parent="1" vertex="1">
                    <mxGeometry x="300" y="460" width="80" height="80" as="geometry"/>
                </mxCell>
                <mxCell id="5" value="2w + 1b" style="ellipse;whiteSpace=wrap;html=1;aspect=fixed;" parent="1" vertex="1">
                    <mxGeometry x="300" y="590" width="80" height="80" as="geometry"/>
                </mxCell>
                <mxCell id="6" value="x1" style="rounded=0;whiteSpace=wrap;html=1;" parent="1" vertex="1">
                    <mxGeometry x="60" y="310" width="120" height="60" as="geometry"/>
                </mxCell>
                <mxCell id="7" value="x2" style="rounded=0;whiteSpace=wrap;html=1;" parent="1" vertex="1">
                    <mxGeometry x="60" y="480" width="120" height="60" as="geometry"/>
                </mxCell>
                <mxCell id="8" value="4w + 1b" style="ellipse;whiteSpace=wrap;html=1;aspect=fixed;" parent="1" vertex="1">
                    <mxGeometry x="460" y="220" width="80" height="80" as="geometry"/>
                </mxCell>
                <mxCell id="9" value="4w + 1b" style="ellipse;whiteSpace=wrap;html=1;aspect=fixed;" parent="1" vertex="1">
                    <mxGeometry x="460" y="340" width="80" height="80" as="geometry"/>
                </mxCell>
                <mxCell id="10" value="4w + 1b" style="ellipse;whiteSpace=wrap;html=1;aspect=fixed;" parent="1" vertex="1">
                    <mxGeometry x="460" y="460" width="80" height="80" as="geometry"/>
                </mxCell>
                <mxCell id="11" value="4w + 1b" style="ellipse;whiteSpace=wrap;html=1;aspect=fixed;" parent="1" vertex="1">
                    <mxGeometry x="460" y="590" width="80" height="80" as="geometry"/>
                </mxCell>
                <mxCell id="12" value="4w + 1b" style="ellipse;whiteSpace=wrap;html=1;aspect=fixed;" parent="1" vertex="1">
                    <mxGeometry x="600" y="390" width="80" height="80" as="geometry"/>
                </mxCell>
                <mxCell id="13" value="3 * 4" style="text;html=1;align=center;verticalAlign=middle;resizable=0;points=[];autosize=1;strokeColor=none;fillColor=none;" parent="1" vertex="1">
                    <mxGeometry x="310" y="715" width="50" height="30" as="geometry"/>
                </mxCell>
                <mxCell id="14" value="5 * 4" style="text;html=1;align=center;verticalAlign=middle;resizable=0;points=[];autosize=1;strokeColor=none;fillColor=none;" parent="1" vertex="1">
                    <mxGeometry x="475" y="715" width="50" height="30" as="geometry"/>
                </mxCell>
                <mxCell id="15" value="5 * 1" style="text;html=1;align=center;verticalAlign=middle;resizable=0;points=[];autosize=1;strokeColor=none;fillColor=none;" parent="1" vertex="1">
                    <mxGeometry x="615" y="715" width="50" height="30" as="geometry"/>
                </mxCell>
                <mxCell id="16" value="12 + 20 + 5 = 37" style="text;html=1;align=center;verticalAlign=middle;resizable=0;points=[];autosize=1;strokeColor=none;fillColor=none;" parent="1" vertex="1">
                    <mxGeometry x="275" y="780" width="110" height="30" as="geometry"/>
                </mxCell>
            </root>
        </mxGraphModel>
    </diagram>
</mxfile>